<mxfile host="app.diagrams.net" modified="2022-07-18T13:12:47.605Z" agent="5.0 (Windows NT 10.0; Win64; x64) AppleWebKit/537.36 (KHTML, like Gecko) Chrome/103.0.0.0 Safari/537.36" etag="oNIiMnSJRma8bxTTOrNI" version="20.1.1" type="github">
  <diagram id="6a731a19-8d31-9384-78a2-239565b7b9f0" name="Page-1">
    <mxGraphModel dx="2214" dy="1193" grid="1" gridSize="10" guides="1" tooltips="1" connect="1" arrows="1" fold="1" page="1" pageScale="1" pageWidth="1169" pageHeight="827" background="none" math="0" shadow="0">
      <root>
        <mxCell id="0" />
        <mxCell id="1" parent="0" />
        <mxCell id="f2suV1up_wErrJ2xMtHf-1989" value="" style="rounded=1;whiteSpace=wrap;html=1;fillColor=none;strokeColor=#FF0000;dashed=1;arcSize=5;" vertex="1" parent="1">
          <mxGeometry x="250" y="450" width="620" height="275" as="geometry" />
        </mxCell>
        <mxCell id="f2suV1up_wErrJ2xMtHf-1982" value="" style="rounded=1;whiteSpace=wrap;html=1;fillColor=none;strokeColor=#FF0000;dashed=1;" vertex="1" parent="1">
          <mxGeometry x="30" y="30" width="180" height="40" as="geometry" />
        </mxCell>
        <mxCell id="f2suV1up_wErrJ2xMtHf-1984" value="" style="rounded=1;whiteSpace=wrap;html=1;fillColor=none;strokeColor=#FF0000;dashed=1;arcSize=5;" vertex="1" parent="1">
          <mxGeometry x="30" y="90" width="620" height="320" as="geometry" />
        </mxCell>
        <mxCell id="f2suV1up_wErrJ2xMtHf-1782" style="edgeStyle=orthogonalEdgeStyle;rounded=0;orthogonalLoop=1;jettySize=auto;html=1;exitX=0.5;exitY=1;exitDx=0;exitDy=0;entryX=0.5;entryY=0;entryDx=0;entryDy=0;" edge="1" parent="1" source="f2suV1up_wErrJ2xMtHf-1779" target="f2suV1up_wErrJ2xMtHf-1780">
          <mxGeometry relative="1" as="geometry" />
        </mxCell>
        <mxCell id="f2suV1up_wErrJ2xMtHf-1779" value="#0: conv3x3, ch=32, st=2" style="rounded=0;whiteSpace=wrap;html=1;" vertex="1" parent="1">
          <mxGeometry x="40" y="40" width="160" height="20" as="geometry" />
        </mxCell>
        <mxCell id="f2suV1up_wErrJ2xMtHf-1783" style="edgeStyle=orthogonalEdgeStyle;rounded=0;orthogonalLoop=1;jettySize=auto;html=1;exitX=0.5;exitY=1;exitDx=0;exitDy=0;entryX=0.5;entryY=0;entryDx=0;entryDy=0;" edge="1" parent="1" source="f2suV1up_wErrJ2xMtHf-1780" target="f2suV1up_wErrJ2xMtHf-1781">
          <mxGeometry relative="1" as="geometry" />
        </mxCell>
        <mxCell id="f2suV1up_wErrJ2xMtHf-1988" style="edgeStyle=orthogonalEdgeStyle;rounded=0;orthogonalLoop=1;jettySize=auto;html=1;exitX=0.75;exitY=1;exitDx=0;exitDy=0;entryX=0.5;entryY=0;entryDx=0;entryDy=0;fontSize=24;fontColor=#FF0000;" edge="1" parent="1" source="f2suV1up_wErrJ2xMtHf-1780" target="f2suV1up_wErrJ2xMtHf-1784">
          <mxGeometry relative="1" as="geometry" />
        </mxCell>
        <mxCell id="f2suV1up_wErrJ2xMtHf-1780" value="#1: conv3x3, ch=64, st=2" style="rounded=0;whiteSpace=wrap;html=1;" vertex="1" parent="1">
          <mxGeometry x="40" y="100" width="160" height="20" as="geometry" />
        </mxCell>
        <mxCell id="f2suV1up_wErrJ2xMtHf-1796" style="edgeStyle=orthogonalEdgeStyle;rounded=0;orthogonalLoop=1;jettySize=auto;html=1;exitX=0.5;exitY=1;exitDx=0;exitDy=0;entryX=0.134;entryY=-0.05;entryDx=0;entryDy=0;entryPerimeter=0;" edge="1" parent="1" source="f2suV1up_wErrJ2xMtHf-1781" target="f2suV1up_wErrJ2xMtHf-1792">
          <mxGeometry relative="1" as="geometry" />
        </mxCell>
        <mxCell id="f2suV1up_wErrJ2xMtHf-1781" value="#2: conv1x1, ch=32" style="rounded=0;whiteSpace=wrap;html=1;" vertex="1" parent="1">
          <mxGeometry x="40" y="160" width="160" height="20" as="geometry" />
        </mxCell>
        <mxCell id="f2suV1up_wErrJ2xMtHf-1790" style="edgeStyle=orthogonalEdgeStyle;rounded=0;orthogonalLoop=1;jettySize=auto;html=1;exitX=0.75;exitY=1;exitDx=0;exitDy=0;entryX=0.5;entryY=0;entryDx=0;entryDy=0;" edge="1" parent="1" source="f2suV1up_wErrJ2xMtHf-1784" target="f2suV1up_wErrJ2xMtHf-1788">
          <mxGeometry relative="1" as="geometry" />
        </mxCell>
        <mxCell id="f2suV1up_wErrJ2xMtHf-1797" style="edgeStyle=orthogonalEdgeStyle;rounded=0;orthogonalLoop=1;jettySize=auto;html=1;exitX=0.5;exitY=1;exitDx=0;exitDy=0;entryX=0.467;entryY=0.03;entryDx=0;entryDy=0;entryPerimeter=0;" edge="1" parent="1" source="f2suV1up_wErrJ2xMtHf-1784" target="f2suV1up_wErrJ2xMtHf-1792">
          <mxGeometry relative="1" as="geometry" />
        </mxCell>
        <mxCell id="f2suV1up_wErrJ2xMtHf-1784" value="#3: conv1x1, ch=32" style="rounded=0;whiteSpace=wrap;html=1;" vertex="1" parent="1">
          <mxGeometry x="240" y="160" width="160" height="20" as="geometry" />
        </mxCell>
        <mxCell id="f2suV1up_wErrJ2xMtHf-1791" style="edgeStyle=orthogonalEdgeStyle;rounded=0;orthogonalLoop=1;jettySize=auto;html=1;exitX=0.75;exitY=1;exitDx=0;exitDy=0;entryX=0.5;entryY=0;entryDx=0;entryDy=0;" edge="1" parent="1" source="f2suV1up_wErrJ2xMtHf-1788" target="f2suV1up_wErrJ2xMtHf-1789">
          <mxGeometry relative="1" as="geometry" />
        </mxCell>
        <mxCell id="f2suV1up_wErrJ2xMtHf-1798" style="edgeStyle=orthogonalEdgeStyle;rounded=0;orthogonalLoop=1;jettySize=auto;html=1;exitX=0.5;exitY=1;exitDx=0;exitDy=0;entryX=0.65;entryY=-0.05;entryDx=0;entryDy=0;entryPerimeter=0;" edge="1" parent="1" source="f2suV1up_wErrJ2xMtHf-1788" target="f2suV1up_wErrJ2xMtHf-1792">
          <mxGeometry relative="1" as="geometry" />
        </mxCell>
        <mxCell id="f2suV1up_wErrJ2xMtHf-1788" value="#4: conv3x3, ch=32" style="rounded=0;whiteSpace=wrap;html=1;" vertex="1" parent="1">
          <mxGeometry x="350" y="220" width="160" height="20" as="geometry" />
        </mxCell>
        <mxCell id="f2suV1up_wErrJ2xMtHf-1799" style="edgeStyle=orthogonalEdgeStyle;rounded=0;orthogonalLoop=1;jettySize=auto;html=1;exitX=0.5;exitY=1;exitDx=0;exitDy=0;entryX=0.85;entryY=-0.05;entryDx=0;entryDy=0;entryPerimeter=0;" edge="1" parent="1" source="f2suV1up_wErrJ2xMtHf-1789" target="f2suV1up_wErrJ2xMtHf-1792">
          <mxGeometry relative="1" as="geometry" />
        </mxCell>
        <mxCell id="f2suV1up_wErrJ2xMtHf-1789" value="#5: conv3x3, ch=32" style="rounded=0;whiteSpace=wrap;html=1;" vertex="1" parent="1">
          <mxGeometry x="470" y="280" width="160" height="20" as="geometry" />
        </mxCell>
        <mxCell id="f2suV1up_wErrJ2xMtHf-1801" style="edgeStyle=orthogonalEdgeStyle;rounded=0;orthogonalLoop=1;jettySize=auto;html=1;exitX=0.5;exitY=1;exitDx=0;exitDy=0;entryX=0.5;entryY=0;entryDx=0;entryDy=0;" edge="1" parent="1" source="f2suV1up_wErrJ2xMtHf-1792" target="f2suV1up_wErrJ2xMtHf-1800">
          <mxGeometry relative="1" as="geometry" />
        </mxCell>
        <mxCell id="f2suV1up_wErrJ2xMtHf-1792" value="#6: concat" style="rounded=0;whiteSpace=wrap;html=1;" vertex="1" parent="1">
          <mxGeometry x="40" y="339" width="600" height="20" as="geometry" />
        </mxCell>
        <mxCell id="f2suV1up_wErrJ2xMtHf-1803" style="edgeStyle=orthogonalEdgeStyle;rounded=0;orthogonalLoop=1;jettySize=auto;html=1;exitX=0.5;exitY=1;exitDx=0;exitDy=0;entryX=0.5;entryY=0;entryDx=0;entryDy=0;" edge="1" parent="1" source="f2suV1up_wErrJ2xMtHf-1800" target="f2suV1up_wErrJ2xMtHf-1802">
          <mxGeometry relative="1" as="geometry" />
        </mxCell>
        <mxCell id="f2suV1up_wErrJ2xMtHf-1800" value="#7: conv1x1, ch=64" style="rounded=0;whiteSpace=wrap;html=1;" vertex="1" parent="1">
          <mxGeometry x="260" y="380" width="160" height="20" as="geometry" />
        </mxCell>
        <mxCell id="f2suV1up_wErrJ2xMtHf-1802" value="#8: maxpool, k=2, st=2" style="rounded=0;whiteSpace=wrap;html=1;" vertex="1" parent="1">
          <mxGeometry x="260" y="420" width="160" height="20" as="geometry" />
        </mxCell>
        <mxCell id="f2suV1up_wErrJ2xMtHf-1804" style="edgeStyle=orthogonalEdgeStyle;rounded=0;orthogonalLoop=1;jettySize=auto;html=1;exitX=0.5;exitY=1;exitDx=0;exitDy=0;entryX=0.5;entryY=0;entryDx=0;entryDy=0;" edge="1" parent="1" target="f2suV1up_wErrJ2xMtHf-1807">
          <mxGeometry relative="1" as="geometry">
            <mxPoint x="340" y="440" as="sourcePoint" />
          </mxGeometry>
        </mxCell>
        <mxCell id="f2suV1up_wErrJ2xMtHf-1805" style="edgeStyle=orthogonalEdgeStyle;rounded=0;orthogonalLoop=1;jettySize=auto;html=1;exitX=0.75;exitY=1;exitDx=0;exitDy=0;" edge="1" parent="1" target="f2suV1up_wErrJ2xMtHf-1810" source="f2suV1up_wErrJ2xMtHf-1802">
          <mxGeometry relative="1" as="geometry">
            <mxPoint x="370" y="460" as="sourcePoint" />
          </mxGeometry>
        </mxCell>
        <mxCell id="f2suV1up_wErrJ2xMtHf-1806" style="edgeStyle=orthogonalEdgeStyle;rounded=0;orthogonalLoop=1;jettySize=auto;html=1;exitX=0.5;exitY=1;exitDx=0;exitDy=0;entryX=0.134;entryY=-0.05;entryDx=0;entryDy=0;entryPerimeter=0;" edge="1" parent="1" source="f2suV1up_wErrJ2xMtHf-1807" target="f2suV1up_wErrJ2xMtHf-1817">
          <mxGeometry relative="1" as="geometry" />
        </mxCell>
        <mxCell id="f2suV1up_wErrJ2xMtHf-1807" value="#9: conv1x1, ch=64" style="rounded=0;whiteSpace=wrap;html=1;" vertex="1" parent="1">
          <mxGeometry x="260" y="480" width="160" height="20" as="geometry" />
        </mxCell>
        <mxCell id="f2suV1up_wErrJ2xMtHf-1808" style="edgeStyle=orthogonalEdgeStyle;rounded=0;orthogonalLoop=1;jettySize=auto;html=1;exitX=0.75;exitY=1;exitDx=0;exitDy=0;entryX=0.5;entryY=0;entryDx=0;entryDy=0;" edge="1" parent="1" source="f2suV1up_wErrJ2xMtHf-1810" target="f2suV1up_wErrJ2xMtHf-1813">
          <mxGeometry relative="1" as="geometry" />
        </mxCell>
        <mxCell id="f2suV1up_wErrJ2xMtHf-1809" style="edgeStyle=orthogonalEdgeStyle;rounded=0;orthogonalLoop=1;jettySize=auto;html=1;exitX=0.5;exitY=1;exitDx=0;exitDy=0;entryX=0.467;entryY=0.03;entryDx=0;entryDy=0;entryPerimeter=0;" edge="1" parent="1" source="f2suV1up_wErrJ2xMtHf-1810" target="f2suV1up_wErrJ2xMtHf-1817">
          <mxGeometry relative="1" as="geometry" />
        </mxCell>
        <mxCell id="f2suV1up_wErrJ2xMtHf-1810" value="#10: conv1x1, ch=64" style="rounded=0;whiteSpace=wrap;html=1;" vertex="1" parent="1">
          <mxGeometry x="460" y="480" width="160" height="20" as="geometry" />
        </mxCell>
        <mxCell id="f2suV1up_wErrJ2xMtHf-1811" style="edgeStyle=orthogonalEdgeStyle;rounded=0;orthogonalLoop=1;jettySize=auto;html=1;exitX=0.75;exitY=1;exitDx=0;exitDy=0;entryX=0.5;entryY=0;entryDx=0;entryDy=0;" edge="1" parent="1" source="f2suV1up_wErrJ2xMtHf-1813" target="f2suV1up_wErrJ2xMtHf-1815">
          <mxGeometry relative="1" as="geometry" />
        </mxCell>
        <mxCell id="f2suV1up_wErrJ2xMtHf-1812" style="edgeStyle=orthogonalEdgeStyle;rounded=0;orthogonalLoop=1;jettySize=auto;html=1;exitX=0.5;exitY=1;exitDx=0;exitDy=0;entryX=0.65;entryY=-0.05;entryDx=0;entryDy=0;entryPerimeter=0;" edge="1" parent="1" source="f2suV1up_wErrJ2xMtHf-1813" target="f2suV1up_wErrJ2xMtHf-1817">
          <mxGeometry relative="1" as="geometry" />
        </mxCell>
        <mxCell id="f2suV1up_wErrJ2xMtHf-1813" value="#11: conv3x3, ch=64" style="rounded=0;whiteSpace=wrap;html=1;" vertex="1" parent="1">
          <mxGeometry x="570" y="540" width="160" height="20" as="geometry" />
        </mxCell>
        <mxCell id="f2suV1up_wErrJ2xMtHf-1814" style="edgeStyle=orthogonalEdgeStyle;rounded=0;orthogonalLoop=1;jettySize=auto;html=1;exitX=0.5;exitY=1;exitDx=0;exitDy=0;entryX=0.85;entryY=-0.05;entryDx=0;entryDy=0;entryPerimeter=0;" edge="1" parent="1" source="f2suV1up_wErrJ2xMtHf-1815" target="f2suV1up_wErrJ2xMtHf-1817">
          <mxGeometry relative="1" as="geometry" />
        </mxCell>
        <mxCell id="f2suV1up_wErrJ2xMtHf-1815" value="#12: conv3x3, ch=64" style="rounded=0;whiteSpace=wrap;html=1;" vertex="1" parent="1">
          <mxGeometry x="690" y="600" width="160" height="20" as="geometry" />
        </mxCell>
        <mxCell id="f2suV1up_wErrJ2xMtHf-1816" style="edgeStyle=orthogonalEdgeStyle;rounded=0;orthogonalLoop=1;jettySize=auto;html=1;exitX=0.5;exitY=1;exitDx=0;exitDy=0;entryX=0.5;entryY=0;entryDx=0;entryDy=0;" edge="1" parent="1" source="f2suV1up_wErrJ2xMtHf-1817" target="f2suV1up_wErrJ2xMtHf-1818">
          <mxGeometry relative="1" as="geometry" />
        </mxCell>
        <mxCell id="f2suV1up_wErrJ2xMtHf-1817" value="#13: concat" style="rounded=0;whiteSpace=wrap;html=1;" vertex="1" parent="1">
          <mxGeometry x="260" y="659" width="600" height="20" as="geometry" />
        </mxCell>
        <mxCell id="f2suV1up_wErrJ2xMtHf-1913" style="edgeStyle=orthogonalEdgeStyle;rounded=0;orthogonalLoop=1;jettySize=auto;html=1;exitX=0.75;exitY=1;exitDx=0;exitDy=0;entryX=0.5;entryY=0;entryDx=0;entryDy=0;" edge="1" parent="1" source="f2suV1up_wErrJ2xMtHf-1818" target="f2suV1up_wErrJ2xMtHf-1912">
          <mxGeometry relative="1" as="geometry">
            <Array as="points">
              <mxPoint x="600" y="730" />
              <mxPoint x="2270" y="730" />
            </Array>
          </mxGeometry>
        </mxCell>
        <mxCell id="f2suV1up_wErrJ2xMtHf-1818" value="#14: conv1x1, ch=128" style="rounded=0;whiteSpace=wrap;html=1;" vertex="1" parent="1">
          <mxGeometry x="480" y="700" width="160" height="20" as="geometry" />
        </mxCell>
        <mxCell id="f2suV1up_wErrJ2xMtHf-1819" style="edgeStyle=orthogonalEdgeStyle;rounded=0;orthogonalLoop=1;jettySize=auto;html=1;exitX=0.5;exitY=1;exitDx=0;exitDy=0;entryX=0.5;entryY=0;entryDx=0;entryDy=0;" edge="1" parent="1" target="f2suV1up_wErrJ2xMtHf-1820">
          <mxGeometry relative="1" as="geometry">
            <mxPoint x="550" y="720" as="sourcePoint" />
          </mxGeometry>
        </mxCell>
        <mxCell id="f2suV1up_wErrJ2xMtHf-1820" value="#15: maxpool, k=2, st=2" style="rounded=0;whiteSpace=wrap;html=1;" vertex="1" parent="1">
          <mxGeometry x="480" y="740" width="160" height="20" as="geometry" />
        </mxCell>
        <mxCell id="f2suV1up_wErrJ2xMtHf-1821" style="edgeStyle=orthogonalEdgeStyle;rounded=0;orthogonalLoop=1;jettySize=auto;html=1;exitX=0.5;exitY=1;exitDx=0;exitDy=0;entryX=0.5;entryY=0;entryDx=0;entryDy=0;" edge="1" parent="1" target="f2suV1up_wErrJ2xMtHf-1824">
          <mxGeometry relative="1" as="geometry">
            <mxPoint x="560" y="760" as="sourcePoint" />
          </mxGeometry>
        </mxCell>
        <mxCell id="f2suV1up_wErrJ2xMtHf-1822" style="edgeStyle=orthogonalEdgeStyle;rounded=0;orthogonalLoop=1;jettySize=auto;html=1;exitX=0.75;exitY=1;exitDx=0;exitDy=0;" edge="1" parent="1" source="f2suV1up_wErrJ2xMtHf-1820" target="f2suV1up_wErrJ2xMtHf-1827">
          <mxGeometry relative="1" as="geometry">
            <mxPoint x="590" y="780" as="sourcePoint" />
          </mxGeometry>
        </mxCell>
        <mxCell id="f2suV1up_wErrJ2xMtHf-1823" style="edgeStyle=orthogonalEdgeStyle;rounded=0;orthogonalLoop=1;jettySize=auto;html=1;exitX=0.5;exitY=1;exitDx=0;exitDy=0;entryX=0.134;entryY=-0.05;entryDx=0;entryDy=0;entryPerimeter=0;" edge="1" parent="1" source="f2suV1up_wErrJ2xMtHf-1824" target="f2suV1up_wErrJ2xMtHf-1834">
          <mxGeometry relative="1" as="geometry" />
        </mxCell>
        <mxCell id="f2suV1up_wErrJ2xMtHf-1824" value="#16: conv1x1, ch=128" style="rounded=0;whiteSpace=wrap;html=1;" vertex="1" parent="1">
          <mxGeometry x="480" y="800" width="160" height="20" as="geometry" />
        </mxCell>
        <mxCell id="f2suV1up_wErrJ2xMtHf-1825" style="edgeStyle=orthogonalEdgeStyle;rounded=0;orthogonalLoop=1;jettySize=auto;html=1;exitX=0.75;exitY=1;exitDx=0;exitDy=0;entryX=0.5;entryY=0;entryDx=0;entryDy=0;" edge="1" parent="1" source="f2suV1up_wErrJ2xMtHf-1827" target="f2suV1up_wErrJ2xMtHf-1830">
          <mxGeometry relative="1" as="geometry" />
        </mxCell>
        <mxCell id="f2suV1up_wErrJ2xMtHf-1826" style="edgeStyle=orthogonalEdgeStyle;rounded=0;orthogonalLoop=1;jettySize=auto;html=1;exitX=0.5;exitY=1;exitDx=0;exitDy=0;entryX=0.467;entryY=0.03;entryDx=0;entryDy=0;entryPerimeter=0;" edge="1" parent="1" source="f2suV1up_wErrJ2xMtHf-1827" target="f2suV1up_wErrJ2xMtHf-1834">
          <mxGeometry relative="1" as="geometry" />
        </mxCell>
        <mxCell id="f2suV1up_wErrJ2xMtHf-1827" value="#17: conv1x1, ch=128" style="rounded=0;whiteSpace=wrap;html=1;" vertex="1" parent="1">
          <mxGeometry x="680" y="800" width="160" height="20" as="geometry" />
        </mxCell>
        <mxCell id="f2suV1up_wErrJ2xMtHf-1828" style="edgeStyle=orthogonalEdgeStyle;rounded=0;orthogonalLoop=1;jettySize=auto;html=1;exitX=0.75;exitY=1;exitDx=0;exitDy=0;entryX=0.5;entryY=0;entryDx=0;entryDy=0;" edge="1" parent="1" source="f2suV1up_wErrJ2xMtHf-1830" target="f2suV1up_wErrJ2xMtHf-1832">
          <mxGeometry relative="1" as="geometry" />
        </mxCell>
        <mxCell id="f2suV1up_wErrJ2xMtHf-1829" style="edgeStyle=orthogonalEdgeStyle;rounded=0;orthogonalLoop=1;jettySize=auto;html=1;exitX=0.5;exitY=1;exitDx=0;exitDy=0;entryX=0.65;entryY=-0.05;entryDx=0;entryDy=0;entryPerimeter=0;" edge="1" parent="1" source="f2suV1up_wErrJ2xMtHf-1830" target="f2suV1up_wErrJ2xMtHf-1834">
          <mxGeometry relative="1" as="geometry" />
        </mxCell>
        <mxCell id="f2suV1up_wErrJ2xMtHf-1830" value="#18: conv3x3, ch=128" style="rounded=0;whiteSpace=wrap;html=1;" vertex="1" parent="1">
          <mxGeometry x="790" y="860" width="160" height="20" as="geometry" />
        </mxCell>
        <mxCell id="f2suV1up_wErrJ2xMtHf-1831" style="edgeStyle=orthogonalEdgeStyle;rounded=0;orthogonalLoop=1;jettySize=auto;html=1;exitX=0.5;exitY=1;exitDx=0;exitDy=0;entryX=0.85;entryY=-0.05;entryDx=0;entryDy=0;entryPerimeter=0;" edge="1" parent="1" source="f2suV1up_wErrJ2xMtHf-1832" target="f2suV1up_wErrJ2xMtHf-1834">
          <mxGeometry relative="1" as="geometry" />
        </mxCell>
        <mxCell id="f2suV1up_wErrJ2xMtHf-1832" value="#19: conv3x3, ch=128" style="rounded=0;whiteSpace=wrap;html=1;" vertex="1" parent="1">
          <mxGeometry x="910" y="920" width="160" height="20" as="geometry" />
        </mxCell>
        <mxCell id="f2suV1up_wErrJ2xMtHf-1833" style="edgeStyle=orthogonalEdgeStyle;rounded=0;orthogonalLoop=1;jettySize=auto;html=1;exitX=0.5;exitY=1;exitDx=0;exitDy=0;entryX=0.5;entryY=0;entryDx=0;entryDy=0;" edge="1" parent="1" source="f2suV1up_wErrJ2xMtHf-1834" target="f2suV1up_wErrJ2xMtHf-1835">
          <mxGeometry relative="1" as="geometry" />
        </mxCell>
        <mxCell id="f2suV1up_wErrJ2xMtHf-1834" value="#20: concat" style="rounded=0;whiteSpace=wrap;html=1;" vertex="1" parent="1">
          <mxGeometry x="480" y="979" width="600" height="20" as="geometry" />
        </mxCell>
        <mxCell id="f2suV1up_wErrJ2xMtHf-1885" style="edgeStyle=orthogonalEdgeStyle;rounded=0;orthogonalLoop=1;jettySize=auto;html=1;exitX=0.75;exitY=1;exitDx=0;exitDy=0;entryX=0.5;entryY=0;entryDx=0;entryDy=0;" edge="1" parent="1" source="f2suV1up_wErrJ2xMtHf-1835" target="f2suV1up_wErrJ2xMtHf-1884">
          <mxGeometry relative="1" as="geometry">
            <Array as="points">
              <mxPoint x="820" y="1050" />
              <mxPoint x="1760" y="1050" />
            </Array>
          </mxGeometry>
        </mxCell>
        <mxCell id="f2suV1up_wErrJ2xMtHf-1835" value="#21: conv1x1, ch=256" style="rounded=0;whiteSpace=wrap;html=1;" vertex="1" parent="1">
          <mxGeometry x="700" y="1020" width="160" height="20" as="geometry" />
        </mxCell>
        <mxCell id="f2suV1up_wErrJ2xMtHf-1836" style="edgeStyle=orthogonalEdgeStyle;rounded=0;orthogonalLoop=1;jettySize=auto;html=1;exitX=0.5;exitY=1;exitDx=0;exitDy=0;entryX=0.5;entryY=0;entryDx=0;entryDy=0;" edge="1" parent="1" target="f2suV1up_wErrJ2xMtHf-1837">
          <mxGeometry relative="1" as="geometry">
            <mxPoint x="770" y="1040" as="sourcePoint" />
          </mxGeometry>
        </mxCell>
        <mxCell id="f2suV1up_wErrJ2xMtHf-1837" value="#22: maxpool, k=2, st=2" style="rounded=0;whiteSpace=wrap;html=1;" vertex="1" parent="1">
          <mxGeometry x="700" y="1060" width="160" height="20" as="geometry" />
        </mxCell>
        <mxCell id="f2suV1up_wErrJ2xMtHf-1838" style="edgeStyle=orthogonalEdgeStyle;rounded=0;orthogonalLoop=1;jettySize=auto;html=1;exitX=0.5;exitY=1;exitDx=0;exitDy=0;entryX=0.5;entryY=0;entryDx=0;entryDy=0;" edge="1" parent="1" target="f2suV1up_wErrJ2xMtHf-1841">
          <mxGeometry relative="1" as="geometry">
            <mxPoint x="780" y="1080" as="sourcePoint" />
          </mxGeometry>
        </mxCell>
        <mxCell id="f2suV1up_wErrJ2xMtHf-1839" style="edgeStyle=orthogonalEdgeStyle;rounded=0;orthogonalLoop=1;jettySize=auto;html=1;exitX=0.75;exitY=1;exitDx=0;exitDy=0;" edge="1" parent="1" source="f2suV1up_wErrJ2xMtHf-1837" target="f2suV1up_wErrJ2xMtHf-1844">
          <mxGeometry relative="1" as="geometry">
            <mxPoint x="810" y="1100" as="sourcePoint" />
          </mxGeometry>
        </mxCell>
        <mxCell id="f2suV1up_wErrJ2xMtHf-1840" style="edgeStyle=orthogonalEdgeStyle;rounded=0;orthogonalLoop=1;jettySize=auto;html=1;exitX=0.5;exitY=1;exitDx=0;exitDy=0;entryX=0.134;entryY=-0.05;entryDx=0;entryDy=0;entryPerimeter=0;" edge="1" parent="1" source="f2suV1up_wErrJ2xMtHf-1841" target="f2suV1up_wErrJ2xMtHf-1851">
          <mxGeometry relative="1" as="geometry" />
        </mxCell>
        <mxCell id="f2suV1up_wErrJ2xMtHf-1841" value="#23: conv1x1, ch=256" style="rounded=0;whiteSpace=wrap;html=1;" vertex="1" parent="1">
          <mxGeometry x="700" y="1120" width="160" height="20" as="geometry" />
        </mxCell>
        <mxCell id="f2suV1up_wErrJ2xMtHf-1842" style="edgeStyle=orthogonalEdgeStyle;rounded=0;orthogonalLoop=1;jettySize=auto;html=1;exitX=0.75;exitY=1;exitDx=0;exitDy=0;entryX=0.5;entryY=0;entryDx=0;entryDy=0;" edge="1" parent="1" source="f2suV1up_wErrJ2xMtHf-1844" target="f2suV1up_wErrJ2xMtHf-1847">
          <mxGeometry relative="1" as="geometry" />
        </mxCell>
        <mxCell id="f2suV1up_wErrJ2xMtHf-1843" style="edgeStyle=orthogonalEdgeStyle;rounded=0;orthogonalLoop=1;jettySize=auto;html=1;exitX=0.5;exitY=1;exitDx=0;exitDy=0;entryX=0.467;entryY=0.03;entryDx=0;entryDy=0;entryPerimeter=0;" edge="1" parent="1" source="f2suV1up_wErrJ2xMtHf-1844" target="f2suV1up_wErrJ2xMtHf-1851">
          <mxGeometry relative="1" as="geometry" />
        </mxCell>
        <mxCell id="f2suV1up_wErrJ2xMtHf-1844" value="#24: conv1x1, ch=256" style="rounded=0;whiteSpace=wrap;html=1;" vertex="1" parent="1">
          <mxGeometry x="900" y="1120" width="160" height="20" as="geometry" />
        </mxCell>
        <mxCell id="f2suV1up_wErrJ2xMtHf-1845" style="edgeStyle=orthogonalEdgeStyle;rounded=0;orthogonalLoop=1;jettySize=auto;html=1;exitX=0.75;exitY=1;exitDx=0;exitDy=0;entryX=0.5;entryY=0;entryDx=0;entryDy=0;" edge="1" parent="1" source="f2suV1up_wErrJ2xMtHf-1847" target="f2suV1up_wErrJ2xMtHf-1849">
          <mxGeometry relative="1" as="geometry" />
        </mxCell>
        <mxCell id="f2suV1up_wErrJ2xMtHf-1846" style="edgeStyle=orthogonalEdgeStyle;rounded=0;orthogonalLoop=1;jettySize=auto;html=1;exitX=0.5;exitY=1;exitDx=0;exitDy=0;entryX=0.65;entryY=-0.05;entryDx=0;entryDy=0;entryPerimeter=0;" edge="1" parent="1" source="f2suV1up_wErrJ2xMtHf-1847" target="f2suV1up_wErrJ2xMtHf-1851">
          <mxGeometry relative="1" as="geometry" />
        </mxCell>
        <mxCell id="f2suV1up_wErrJ2xMtHf-1847" value="#25: conv3x3, ch=256" style="rounded=0;whiteSpace=wrap;html=1;" vertex="1" parent="1">
          <mxGeometry x="1010" y="1180" width="160" height="20" as="geometry" />
        </mxCell>
        <mxCell id="f2suV1up_wErrJ2xMtHf-1848" style="edgeStyle=orthogonalEdgeStyle;rounded=0;orthogonalLoop=1;jettySize=auto;html=1;exitX=0.5;exitY=1;exitDx=0;exitDy=0;entryX=0.85;entryY=-0.05;entryDx=0;entryDy=0;entryPerimeter=0;" edge="1" parent="1" source="f2suV1up_wErrJ2xMtHf-1849" target="f2suV1up_wErrJ2xMtHf-1851">
          <mxGeometry relative="1" as="geometry" />
        </mxCell>
        <mxCell id="f2suV1up_wErrJ2xMtHf-1849" value="#26: conv3x3, ch=256" style="rounded=0;whiteSpace=wrap;html=1;" vertex="1" parent="1">
          <mxGeometry x="1130" y="1240" width="160" height="20" as="geometry" />
        </mxCell>
        <mxCell id="f2suV1up_wErrJ2xMtHf-1850" style="edgeStyle=orthogonalEdgeStyle;rounded=0;orthogonalLoop=1;jettySize=auto;html=1;exitX=0.5;exitY=1;exitDx=0;exitDy=0;entryX=0.5;entryY=0;entryDx=0;entryDy=0;" edge="1" parent="1" source="f2suV1up_wErrJ2xMtHf-1851" target="f2suV1up_wErrJ2xMtHf-1852">
          <mxGeometry relative="1" as="geometry" />
        </mxCell>
        <mxCell id="f2suV1up_wErrJ2xMtHf-1851" value="#27: concat" style="rounded=0;whiteSpace=wrap;html=1;" vertex="1" parent="1">
          <mxGeometry x="700" y="1299" width="600" height="20" as="geometry" />
        </mxCell>
        <mxCell id="f2suV1up_wErrJ2xMtHf-1855" style="edgeStyle=orthogonalEdgeStyle;rounded=0;orthogonalLoop=1;jettySize=auto;html=1;exitX=0.5;exitY=1;exitDx=0;exitDy=0;entryX=0.5;entryY=0;entryDx=0;entryDy=0;" edge="1" parent="1" source="f2suV1up_wErrJ2xMtHf-1852" target="f2suV1up_wErrJ2xMtHf-1853">
          <mxGeometry relative="1" as="geometry" />
        </mxCell>
        <mxCell id="f2suV1up_wErrJ2xMtHf-1856" style="edgeStyle=orthogonalEdgeStyle;rounded=0;orthogonalLoop=1;jettySize=auto;html=1;exitX=0.75;exitY=1;exitDx=0;exitDy=0;entryX=0.5;entryY=0;entryDx=0;entryDy=0;" edge="1" parent="1" source="f2suV1up_wErrJ2xMtHf-1852" target="f2suV1up_wErrJ2xMtHf-1854">
          <mxGeometry relative="1" as="geometry" />
        </mxCell>
        <mxCell id="f2suV1up_wErrJ2xMtHf-1852" value="#28: conv1x1, ch=512" style="rounded=0;whiteSpace=wrap;html=1;" vertex="1" parent="1">
          <mxGeometry x="920" y="1340" width="160" height="20" as="geometry" />
        </mxCell>
        <mxCell id="f2suV1up_wErrJ2xMtHf-1874" style="edgeStyle=orthogonalEdgeStyle;rounded=0;orthogonalLoop=1;jettySize=auto;html=1;exitX=0.5;exitY=1;exitDx=0;exitDy=0;entryX=0.149;entryY=-0.124;entryDx=0;entryDy=0;entryPerimeter=0;" edge="1" parent="1" source="f2suV1up_wErrJ2xMtHf-1853" target="f2suV1up_wErrJ2xMtHf-1873">
          <mxGeometry relative="1" as="geometry" />
        </mxCell>
        <mxCell id="f2suV1up_wErrJ2xMtHf-1853" value="#29: conv1x1, ch=256" style="rounded=0;whiteSpace=wrap;html=1;" vertex="1" parent="1">
          <mxGeometry x="920" y="1400" width="160" height="20" as="geometry" />
        </mxCell>
        <mxCell id="f2suV1up_wErrJ2xMtHf-1862" style="edgeStyle=orthogonalEdgeStyle;rounded=0;orthogonalLoop=1;jettySize=auto;html=1;exitX=0.75;exitY=1;exitDx=0;exitDy=0;entryX=0.5;entryY=0;entryDx=0;entryDy=0;" edge="1" parent="1" source="f2suV1up_wErrJ2xMtHf-1854" target="f2suV1up_wErrJ2xMtHf-1857">
          <mxGeometry relative="1" as="geometry" />
        </mxCell>
        <mxCell id="f2suV1up_wErrJ2xMtHf-1865" style="edgeStyle=orthogonalEdgeStyle;rounded=0;orthogonalLoop=1;jettySize=auto;html=1;exitX=0.75;exitY=1;exitDx=0;exitDy=0;" edge="1" parent="1" source="f2suV1up_wErrJ2xMtHf-1854" target="f2suV1up_wErrJ2xMtHf-1858">
          <mxGeometry relative="1" as="geometry">
            <Array as="points">
              <mxPoint x="1240" y="1440" />
              <mxPoint x="1560" y="1440" />
            </Array>
          </mxGeometry>
        </mxCell>
        <mxCell id="f2suV1up_wErrJ2xMtHf-1867" style="edgeStyle=orthogonalEdgeStyle;rounded=0;orthogonalLoop=1;jettySize=auto;html=1;exitX=0.5;exitY=1;exitDx=0;exitDy=0;entryX=0.154;entryY=0.182;entryDx=0;entryDy=0;entryPerimeter=0;" edge="1" parent="1" source="f2suV1up_wErrJ2xMtHf-1854" target="f2suV1up_wErrJ2xMtHf-1866">
          <mxGeometry relative="1" as="geometry" />
        </mxCell>
        <mxCell id="f2suV1up_wErrJ2xMtHf-1854" value="#30: conv1x1, ch=256" style="rounded=0;whiteSpace=wrap;html=1;" vertex="1" parent="1">
          <mxGeometry x="1120" y="1400" width="160" height="20" as="geometry" />
        </mxCell>
        <mxCell id="f2suV1up_wErrJ2xMtHf-1868" style="edgeStyle=orthogonalEdgeStyle;rounded=0;orthogonalLoop=1;jettySize=auto;html=1;exitX=0.5;exitY=1;exitDx=0;exitDy=0;entryX=0.386;entryY=-0.147;entryDx=0;entryDy=0;entryPerimeter=0;" edge="1" parent="1" source="f2suV1up_wErrJ2xMtHf-1857" target="f2suV1up_wErrJ2xMtHf-1866">
          <mxGeometry relative="1" as="geometry" />
        </mxCell>
        <mxCell id="f2suV1up_wErrJ2xMtHf-1857" value="#31: maxpool, k=5" style="rounded=0;whiteSpace=wrap;html=1;" vertex="1" parent="1">
          <mxGeometry x="1240" y="1460" width="160" height="20" as="geometry" />
        </mxCell>
        <mxCell id="f2suV1up_wErrJ2xMtHf-1870" style="edgeStyle=orthogonalEdgeStyle;rounded=0;orthogonalLoop=1;jettySize=auto;html=1;exitX=0.5;exitY=1;exitDx=0;exitDy=0;entryX=0.847;entryY=0.088;entryDx=0;entryDy=0;entryPerimeter=0;" edge="1" parent="1" source="f2suV1up_wErrJ2xMtHf-1858" target="f2suV1up_wErrJ2xMtHf-1866">
          <mxGeometry relative="1" as="geometry" />
        </mxCell>
        <mxCell id="f2suV1up_wErrJ2xMtHf-1858" value="#33: maxpool, k=13" style="rounded=0;whiteSpace=wrap;html=1;" vertex="1" parent="1">
          <mxGeometry x="1480" y="1550" width="160" height="20" as="geometry" />
        </mxCell>
        <mxCell id="f2suV1up_wErrJ2xMtHf-1869" style="edgeStyle=orthogonalEdgeStyle;rounded=0;orthogonalLoop=1;jettySize=auto;html=1;exitX=0.5;exitY=1;exitDx=0;exitDy=0;entryX=0.615;entryY=-0.1;entryDx=0;entryDy=0;entryPerimeter=0;" edge="1" parent="1" source="f2suV1up_wErrJ2xMtHf-1859" target="f2suV1up_wErrJ2xMtHf-1866">
          <mxGeometry relative="1" as="geometry" />
        </mxCell>
        <mxCell id="f2suV1up_wErrJ2xMtHf-1859" value="#32: maxpool, k=9" style="rounded=0;whiteSpace=wrap;html=1;" vertex="1" parent="1">
          <mxGeometry x="1360" y="1500" width="160" height="20" as="geometry" />
        </mxCell>
        <mxCell id="f2suV1up_wErrJ2xMtHf-1863" style="edgeStyle=orthogonalEdgeStyle;rounded=0;orthogonalLoop=1;jettySize=auto;html=1;exitX=0.75;exitY=1;exitDx=0;exitDy=0;entryX=0.5;entryY=0;entryDx=0;entryDy=0;" edge="1" parent="1" source="f2suV1up_wErrJ2xMtHf-1854" target="f2suV1up_wErrJ2xMtHf-1859">
          <mxGeometry relative="1" as="geometry">
            <mxPoint x="1250" y="1430" as="sourcePoint" />
            <mxPoint x="1330" y="1470" as="targetPoint" />
            <Array as="points">
              <mxPoint x="1240" y="1440" />
              <mxPoint x="1440" y="1440" />
            </Array>
          </mxGeometry>
        </mxCell>
        <mxCell id="f2suV1up_wErrJ2xMtHf-1872" style="edgeStyle=orthogonalEdgeStyle;rounded=0;orthogonalLoop=1;jettySize=auto;html=1;exitX=0.5;exitY=1;exitDx=0;exitDy=0;entryX=0.5;entryY=0;entryDx=0;entryDy=0;" edge="1" parent="1" source="f2suV1up_wErrJ2xMtHf-1866" target="f2suV1up_wErrJ2xMtHf-1871">
          <mxGeometry relative="1" as="geometry" />
        </mxCell>
        <mxCell id="f2suV1up_wErrJ2xMtHf-1866" value="#34: concat" style="rounded=0;whiteSpace=wrap;html=1;" vertex="1" parent="1">
          <mxGeometry x="1120" y="1620" width="520" height="20" as="geometry" />
        </mxCell>
        <mxCell id="f2suV1up_wErrJ2xMtHf-1876" style="edgeStyle=orthogonalEdgeStyle;rounded=0;orthogonalLoop=1;jettySize=auto;html=1;exitX=0.5;exitY=1;exitDx=0;exitDy=0;entryX=0.857;entryY=-0.029;entryDx=0;entryDy=0;entryPerimeter=0;" edge="1" parent="1" source="f2suV1up_wErrJ2xMtHf-1871" target="f2suV1up_wErrJ2xMtHf-1873">
          <mxGeometry relative="1" as="geometry" />
        </mxCell>
        <mxCell id="f2suV1up_wErrJ2xMtHf-1871" value="#35: conv1x1, ch=256" style="rounded=0;whiteSpace=wrap;html=1;" vertex="1" parent="1">
          <mxGeometry x="1300" y="1680" width="160" height="20" as="geometry" />
        </mxCell>
        <mxCell id="f2suV1up_wErrJ2xMtHf-1879" style="edgeStyle=orthogonalEdgeStyle;rounded=0;orthogonalLoop=1;jettySize=auto;html=1;exitX=0.5;exitY=1;exitDx=0;exitDy=0;entryX=0.5;entryY=0;entryDx=0;entryDy=0;" edge="1" parent="1" source="f2suV1up_wErrJ2xMtHf-1873" target="f2suV1up_wErrJ2xMtHf-1878">
          <mxGeometry relative="1" as="geometry" />
        </mxCell>
        <mxCell id="f2suV1up_wErrJ2xMtHf-1873" value="#36: concat" style="rounded=0;whiteSpace=wrap;html=1;" vertex="1" parent="1">
          <mxGeometry x="920" y="1740" width="540" height="20" as="geometry" />
        </mxCell>
        <mxCell id="f2suV1up_wErrJ2xMtHf-1882" style="edgeStyle=orthogonalEdgeStyle;rounded=0;orthogonalLoop=1;jettySize=auto;html=1;exitX=0.5;exitY=1;exitDx=0;exitDy=0;entryX=0.5;entryY=0;entryDx=0;entryDy=0;" edge="1" parent="1" source="f2suV1up_wErrJ2xMtHf-1878" target="f2suV1up_wErrJ2xMtHf-1880">
          <mxGeometry relative="1" as="geometry" />
        </mxCell>
        <mxCell id="f2suV1up_wErrJ2xMtHf-1953" style="edgeStyle=orthogonalEdgeStyle;rounded=0;orthogonalLoop=1;jettySize=auto;html=1;exitX=0.25;exitY=1;exitDx=0;exitDy=0;entryX=0.034;entryY=0.083;entryDx=0;entryDy=0;entryPerimeter=0;" edge="1" parent="1" source="f2suV1up_wErrJ2xMtHf-1878" target="f2suV1up_wErrJ2xMtHf-1952">
          <mxGeometry relative="1" as="geometry">
            <Array as="points">
              <mxPoint x="1150" y="1840" />
              <mxPoint x="1079" y="1840" />
            </Array>
          </mxGeometry>
        </mxCell>
        <mxCell id="f2suV1up_wErrJ2xMtHf-1878" value="#37: conv1x1, ch=256" style="rounded=0;whiteSpace=wrap;html=1;" vertex="1" parent="1">
          <mxGeometry x="1110" y="1800" width="160" height="20" as="geometry" />
        </mxCell>
        <mxCell id="f2suV1up_wErrJ2xMtHf-1883" style="edgeStyle=orthogonalEdgeStyle;rounded=0;orthogonalLoop=1;jettySize=auto;html=1;exitX=0.5;exitY=1;exitDx=0;exitDy=0;entryX=0.5;entryY=0;entryDx=0;entryDy=0;" edge="1" parent="1" source="f2suV1up_wErrJ2xMtHf-1880" target="f2suV1up_wErrJ2xMtHf-1881">
          <mxGeometry relative="1" as="geometry" />
        </mxCell>
        <mxCell id="f2suV1up_wErrJ2xMtHf-1880" value="#38: conv1x1, ch=128" style="rounded=0;whiteSpace=wrap;html=1;" vertex="1" parent="1">
          <mxGeometry x="1110" y="1850" width="160" height="20" as="geometry" />
        </mxCell>
        <mxCell id="f2suV1up_wErrJ2xMtHf-1888" style="edgeStyle=orthogonalEdgeStyle;rounded=0;orthogonalLoop=1;jettySize=auto;html=1;exitX=0.5;exitY=1;exitDx=0;exitDy=0;entryX=0.109;entryY=-0.021;entryDx=0;entryDy=0;entryPerimeter=0;" edge="1" parent="1" source="f2suV1up_wErrJ2xMtHf-1881" target="f2suV1up_wErrJ2xMtHf-1886">
          <mxGeometry relative="1" as="geometry" />
        </mxCell>
        <mxCell id="f2suV1up_wErrJ2xMtHf-1881" value="#39: upsample, x2" style="rounded=0;whiteSpace=wrap;html=1;" vertex="1" parent="1">
          <mxGeometry x="1110" y="1900" width="160" height="20" as="geometry" />
        </mxCell>
        <mxCell id="f2suV1up_wErrJ2xMtHf-1887" style="edgeStyle=orthogonalEdgeStyle;rounded=0;orthogonalLoop=1;jettySize=auto;html=1;exitX=0.5;exitY=1;exitDx=0;exitDy=0;entryX=0.89;entryY=-0.021;entryDx=0;entryDy=0;entryPerimeter=0;" edge="1" parent="1" source="f2suV1up_wErrJ2xMtHf-1884" target="f2suV1up_wErrJ2xMtHf-1886">
          <mxGeometry relative="1" as="geometry" />
        </mxCell>
        <mxCell id="f2suV1up_wErrJ2xMtHf-1884" value="#40: conv1x1, ch=128" style="rounded=0;whiteSpace=wrap;html=1;" vertex="1" parent="1">
          <mxGeometry x="1680" y="1850" width="160" height="20" as="geometry" />
        </mxCell>
        <mxCell id="f2suV1up_wErrJ2xMtHf-1902" style="edgeStyle=orthogonalEdgeStyle;rounded=0;orthogonalLoop=1;jettySize=auto;html=1;exitX=0.75;exitY=1;exitDx=0;exitDy=0;entryX=0.5;entryY=0;entryDx=0;entryDy=0;" edge="1" parent="1" source="f2suV1up_wErrJ2xMtHf-1886" target="f2suV1up_wErrJ2xMtHf-1895">
          <mxGeometry relative="1" as="geometry" />
        </mxCell>
        <mxCell id="f2suV1up_wErrJ2xMtHf-1886" value="#41: concat" style="rounded=0;whiteSpace=wrap;html=1;" vertex="1" parent="1">
          <mxGeometry x="1110" y="1960" width="730" height="20" as="geometry" />
        </mxCell>
        <mxCell id="f2suV1up_wErrJ2xMtHf-1889" style="edgeStyle=orthogonalEdgeStyle;rounded=0;orthogonalLoop=1;jettySize=auto;html=1;exitX=0.5;exitY=1;exitDx=0;exitDy=0;entryX=0.5;entryY=0;entryDx=0;entryDy=0;" edge="1" parent="1" target="f2suV1up_wErrJ2xMtHf-1892">
          <mxGeometry relative="1" as="geometry">
            <mxPoint x="1480" y="1980" as="sourcePoint" />
          </mxGeometry>
        </mxCell>
        <mxCell id="f2suV1up_wErrJ2xMtHf-1891" style="edgeStyle=orthogonalEdgeStyle;rounded=0;orthogonalLoop=1;jettySize=auto;html=1;exitX=0.5;exitY=1;exitDx=0;exitDy=0;entryX=0.134;entryY=-0.05;entryDx=0;entryDy=0;entryPerimeter=0;" edge="1" parent="1" source="f2suV1up_wErrJ2xMtHf-1892" target="f2suV1up_wErrJ2xMtHf-1901">
          <mxGeometry relative="1" as="geometry" />
        </mxCell>
        <mxCell id="f2suV1up_wErrJ2xMtHf-1892" value="#42: conv1x1, ch=64" style="rounded=0;whiteSpace=wrap;html=1;" vertex="1" parent="1">
          <mxGeometry x="1400" y="2020" width="160" height="20" as="geometry" />
        </mxCell>
        <mxCell id="f2suV1up_wErrJ2xMtHf-1893" style="edgeStyle=orthogonalEdgeStyle;rounded=0;orthogonalLoop=1;jettySize=auto;html=1;exitX=0.75;exitY=1;exitDx=0;exitDy=0;entryX=0.5;entryY=0;entryDx=0;entryDy=0;" edge="1" parent="1" source="f2suV1up_wErrJ2xMtHf-1895" target="f2suV1up_wErrJ2xMtHf-1898">
          <mxGeometry relative="1" as="geometry" />
        </mxCell>
        <mxCell id="f2suV1up_wErrJ2xMtHf-1894" style="edgeStyle=orthogonalEdgeStyle;rounded=0;orthogonalLoop=1;jettySize=auto;html=1;exitX=0.5;exitY=1;exitDx=0;exitDy=0;entryX=0.467;entryY=0.03;entryDx=0;entryDy=0;entryPerimeter=0;" edge="1" parent="1" source="f2suV1up_wErrJ2xMtHf-1895" target="f2suV1up_wErrJ2xMtHf-1901">
          <mxGeometry relative="1" as="geometry" />
        </mxCell>
        <mxCell id="f2suV1up_wErrJ2xMtHf-1895" value="#43: conv1x1, ch=64" style="rounded=0;whiteSpace=wrap;html=1;" vertex="1" parent="1">
          <mxGeometry x="1600" y="2020" width="160" height="20" as="geometry" />
        </mxCell>
        <mxCell id="f2suV1up_wErrJ2xMtHf-1896" style="edgeStyle=orthogonalEdgeStyle;rounded=0;orthogonalLoop=1;jettySize=auto;html=1;exitX=0.75;exitY=1;exitDx=0;exitDy=0;entryX=0.5;entryY=0;entryDx=0;entryDy=0;" edge="1" parent="1" source="f2suV1up_wErrJ2xMtHf-1898" target="f2suV1up_wErrJ2xMtHf-1900">
          <mxGeometry relative="1" as="geometry" />
        </mxCell>
        <mxCell id="f2suV1up_wErrJ2xMtHf-1897" style="edgeStyle=orthogonalEdgeStyle;rounded=0;orthogonalLoop=1;jettySize=auto;html=1;exitX=0.5;exitY=1;exitDx=0;exitDy=0;entryX=0.65;entryY=-0.05;entryDx=0;entryDy=0;entryPerimeter=0;" edge="1" parent="1" source="f2suV1up_wErrJ2xMtHf-1898" target="f2suV1up_wErrJ2xMtHf-1901">
          <mxGeometry relative="1" as="geometry" />
        </mxCell>
        <mxCell id="f2suV1up_wErrJ2xMtHf-1898" value="#44: conv3x3, ch=64" style="rounded=0;whiteSpace=wrap;html=1;" vertex="1" parent="1">
          <mxGeometry x="1710" y="2080" width="160" height="20" as="geometry" />
        </mxCell>
        <mxCell id="f2suV1up_wErrJ2xMtHf-1899" style="edgeStyle=orthogonalEdgeStyle;rounded=0;orthogonalLoop=1;jettySize=auto;html=1;exitX=0.5;exitY=1;exitDx=0;exitDy=0;entryX=0.85;entryY=-0.05;entryDx=0;entryDy=0;entryPerimeter=0;" edge="1" parent="1" source="f2suV1up_wErrJ2xMtHf-1900" target="f2suV1up_wErrJ2xMtHf-1901">
          <mxGeometry relative="1" as="geometry" />
        </mxCell>
        <mxCell id="f2suV1up_wErrJ2xMtHf-1900" value="#45: conv3x3, ch=64" style="rounded=0;whiteSpace=wrap;html=1;" vertex="1" parent="1">
          <mxGeometry x="1830" y="2140" width="160" height="20" as="geometry" />
        </mxCell>
        <mxCell id="f2suV1up_wErrJ2xMtHf-1904" style="edgeStyle=orthogonalEdgeStyle;rounded=0;orthogonalLoop=1;jettySize=auto;html=1;exitX=0.5;exitY=1;exitDx=0;exitDy=0;entryX=0.5;entryY=0;entryDx=0;entryDy=0;" edge="1" parent="1" source="f2suV1up_wErrJ2xMtHf-1901" target="f2suV1up_wErrJ2xMtHf-1903">
          <mxGeometry relative="1" as="geometry" />
        </mxCell>
        <mxCell id="f2suV1up_wErrJ2xMtHf-1901" value="#46: concat" style="rounded=0;whiteSpace=wrap;html=1;" vertex="1" parent="1">
          <mxGeometry x="1400" y="2199" width="600" height="20" as="geometry" />
        </mxCell>
        <mxCell id="f2suV1up_wErrJ2xMtHf-1910" style="edgeStyle=orthogonalEdgeStyle;rounded=0;orthogonalLoop=1;jettySize=auto;html=1;exitX=0.5;exitY=1;exitDx=0;exitDy=0;entryX=0.5;entryY=0;entryDx=0;entryDy=0;" edge="1" parent="1" source="f2suV1up_wErrJ2xMtHf-1903" target="f2suV1up_wErrJ2xMtHf-1906">
          <mxGeometry relative="1" as="geometry" />
        </mxCell>
        <mxCell id="f2suV1up_wErrJ2xMtHf-1933" style="edgeStyle=orthogonalEdgeStyle;rounded=0;orthogonalLoop=1;jettySize=auto;html=1;exitX=0.25;exitY=1;exitDx=0;exitDy=0;entryX=0.05;entryY=-0.012;entryDx=0;entryDy=0;entryPerimeter=0;" edge="1" parent="1" source="f2suV1up_wErrJ2xMtHf-1903" target="f2suV1up_wErrJ2xMtHf-1932">
          <mxGeometry relative="1" as="geometry">
            <Array as="points">
              <mxPoint x="1660" y="2300" />
              <mxPoint x="1558" y="2300" />
            </Array>
          </mxGeometry>
        </mxCell>
        <mxCell id="f2suV1up_wErrJ2xMtHf-1903" value="#47: conv1x1, ch=128" style="rounded=0;whiteSpace=wrap;html=1;" vertex="1" parent="1">
          <mxGeometry x="1620" y="2260" width="160" height="20" as="geometry" />
        </mxCell>
        <mxCell id="f2suV1up_wErrJ2xMtHf-1905" style="edgeStyle=orthogonalEdgeStyle;rounded=0;orthogonalLoop=1;jettySize=auto;html=1;exitX=0.5;exitY=1;exitDx=0;exitDy=0;entryX=0.5;entryY=0;entryDx=0;entryDy=0;" edge="1" parent="1" source="f2suV1up_wErrJ2xMtHf-1906" target="f2suV1up_wErrJ2xMtHf-1908">
          <mxGeometry relative="1" as="geometry" />
        </mxCell>
        <mxCell id="f2suV1up_wErrJ2xMtHf-1906" value="#48: conv1x1, ch=64" style="rounded=0;whiteSpace=wrap;html=1;" vertex="1" parent="1">
          <mxGeometry x="1620" y="2310" width="160" height="20" as="geometry" />
        </mxCell>
        <mxCell id="f2suV1up_wErrJ2xMtHf-1907" style="edgeStyle=orthogonalEdgeStyle;rounded=0;orthogonalLoop=1;jettySize=auto;html=1;exitX=0.5;exitY=1;exitDx=0;exitDy=0;entryX=0.109;entryY=-0.021;entryDx=0;entryDy=0;entryPerimeter=0;" edge="1" parent="1" source="f2suV1up_wErrJ2xMtHf-1908" target="f2suV1up_wErrJ2xMtHf-1909">
          <mxGeometry relative="1" as="geometry" />
        </mxCell>
        <mxCell id="f2suV1up_wErrJ2xMtHf-1908" value="#49: upsample, x2" style="rounded=0;whiteSpace=wrap;html=1;" vertex="1" parent="1">
          <mxGeometry x="1620" y="2360" width="160" height="20" as="geometry" />
        </mxCell>
        <mxCell id="f2suV1up_wErrJ2xMtHf-1909" value="#51: concat" style="rounded=0;whiteSpace=wrap;html=1;" vertex="1" parent="1">
          <mxGeometry x="1620" y="2420" width="730" height="20" as="geometry" />
        </mxCell>
        <mxCell id="f2suV1up_wErrJ2xMtHf-1914" style="edgeStyle=orthogonalEdgeStyle;rounded=0;orthogonalLoop=1;jettySize=auto;html=1;exitX=0.5;exitY=1;exitDx=0;exitDy=0;entryX=0.891;entryY=-0.05;entryDx=0;entryDy=0;entryPerimeter=0;" edge="1" parent="1" source="f2suV1up_wErrJ2xMtHf-1912" target="f2suV1up_wErrJ2xMtHf-1909">
          <mxGeometry relative="1" as="geometry" />
        </mxCell>
        <mxCell id="f2suV1up_wErrJ2xMtHf-1912" value="#50: conv1x1, ch=64" style="rounded=0;whiteSpace=wrap;html=1;" vertex="1" parent="1">
          <mxGeometry x="2190" y="2310" width="160" height="20" as="geometry" />
        </mxCell>
        <mxCell id="f2suV1up_wErrJ2xMtHf-1915" style="edgeStyle=orthogonalEdgeStyle;rounded=0;orthogonalLoop=1;jettySize=auto;html=1;exitX=0.75;exitY=1;exitDx=0;exitDy=0;entryX=0.5;entryY=0;entryDx=0;entryDy=0;" edge="1" parent="1" target="f2suV1up_wErrJ2xMtHf-1921">
          <mxGeometry relative="1" as="geometry">
            <mxPoint x="2157.499999999999" y="2440" as="sourcePoint" />
          </mxGeometry>
        </mxCell>
        <mxCell id="f2suV1up_wErrJ2xMtHf-1916" style="edgeStyle=orthogonalEdgeStyle;rounded=0;orthogonalLoop=1;jettySize=auto;html=1;exitX=0.5;exitY=1;exitDx=0;exitDy=0;entryX=0.5;entryY=0;entryDx=0;entryDy=0;" edge="1" parent="1" target="f2suV1up_wErrJ2xMtHf-1918">
          <mxGeometry relative="1" as="geometry">
            <mxPoint x="1979.9999999999995" y="2440" as="sourcePoint" />
          </mxGeometry>
        </mxCell>
        <mxCell id="f2suV1up_wErrJ2xMtHf-1917" style="edgeStyle=orthogonalEdgeStyle;rounded=0;orthogonalLoop=1;jettySize=auto;html=1;exitX=0.5;exitY=1;exitDx=0;exitDy=0;entryX=0.134;entryY=-0.05;entryDx=0;entryDy=0;entryPerimeter=0;" edge="1" parent="1" source="f2suV1up_wErrJ2xMtHf-1918" target="f2suV1up_wErrJ2xMtHf-1928">
          <mxGeometry relative="1" as="geometry" />
        </mxCell>
        <mxCell id="f2suV1up_wErrJ2xMtHf-1918" value="#52: conv1x1, ch=32" style="rounded=0;whiteSpace=wrap;html=1;" vertex="1" parent="1">
          <mxGeometry x="1900" y="2480" width="160" height="20" as="geometry" />
        </mxCell>
        <mxCell id="f2suV1up_wErrJ2xMtHf-1919" style="edgeStyle=orthogonalEdgeStyle;rounded=0;orthogonalLoop=1;jettySize=auto;html=1;exitX=0.75;exitY=1;exitDx=0;exitDy=0;entryX=0.5;entryY=0;entryDx=0;entryDy=0;" edge="1" parent="1" source="f2suV1up_wErrJ2xMtHf-1921" target="f2suV1up_wErrJ2xMtHf-1924">
          <mxGeometry relative="1" as="geometry" />
        </mxCell>
        <mxCell id="f2suV1up_wErrJ2xMtHf-1920" style="edgeStyle=orthogonalEdgeStyle;rounded=0;orthogonalLoop=1;jettySize=auto;html=1;exitX=0.5;exitY=1;exitDx=0;exitDy=0;entryX=0.467;entryY=0.03;entryDx=0;entryDy=0;entryPerimeter=0;" edge="1" parent="1" source="f2suV1up_wErrJ2xMtHf-1921" target="f2suV1up_wErrJ2xMtHf-1928">
          <mxGeometry relative="1" as="geometry" />
        </mxCell>
        <mxCell id="f2suV1up_wErrJ2xMtHf-1921" value="#53: conv1x1, ch=32" style="rounded=0;whiteSpace=wrap;html=1;" vertex="1" parent="1">
          <mxGeometry x="2100" y="2480" width="160" height="20" as="geometry" />
        </mxCell>
        <mxCell id="f2suV1up_wErrJ2xMtHf-1922" style="edgeStyle=orthogonalEdgeStyle;rounded=0;orthogonalLoop=1;jettySize=auto;html=1;exitX=0.75;exitY=1;exitDx=0;exitDy=0;entryX=0.5;entryY=0;entryDx=0;entryDy=0;" edge="1" parent="1" source="f2suV1up_wErrJ2xMtHf-1924" target="f2suV1up_wErrJ2xMtHf-1926">
          <mxGeometry relative="1" as="geometry" />
        </mxCell>
        <mxCell id="f2suV1up_wErrJ2xMtHf-1923" style="edgeStyle=orthogonalEdgeStyle;rounded=0;orthogonalLoop=1;jettySize=auto;html=1;exitX=0.5;exitY=1;exitDx=0;exitDy=0;entryX=0.65;entryY=-0.05;entryDx=0;entryDy=0;entryPerimeter=0;" edge="1" parent="1" source="f2suV1up_wErrJ2xMtHf-1924" target="f2suV1up_wErrJ2xMtHf-1928">
          <mxGeometry relative="1" as="geometry" />
        </mxCell>
        <mxCell id="f2suV1up_wErrJ2xMtHf-1924" value="#54: conv3x3, ch=32" style="rounded=0;whiteSpace=wrap;html=1;" vertex="1" parent="1">
          <mxGeometry x="2210" y="2540" width="160" height="20" as="geometry" />
        </mxCell>
        <mxCell id="f2suV1up_wErrJ2xMtHf-1925" style="edgeStyle=orthogonalEdgeStyle;rounded=0;orthogonalLoop=1;jettySize=auto;html=1;exitX=0.5;exitY=1;exitDx=0;exitDy=0;entryX=0.85;entryY=-0.05;entryDx=0;entryDy=0;entryPerimeter=0;" edge="1" parent="1" source="f2suV1up_wErrJ2xMtHf-1926" target="f2suV1up_wErrJ2xMtHf-1928">
          <mxGeometry relative="1" as="geometry" />
        </mxCell>
        <mxCell id="f2suV1up_wErrJ2xMtHf-1926" value="#55: conv3x3, ch=32" style="rounded=0;whiteSpace=wrap;html=1;" vertex="1" parent="1">
          <mxGeometry x="2330" y="2600" width="160" height="20" as="geometry" />
        </mxCell>
        <mxCell id="f2suV1up_wErrJ2xMtHf-1927" style="edgeStyle=orthogonalEdgeStyle;rounded=0;orthogonalLoop=1;jettySize=auto;html=1;exitX=0.5;exitY=1;exitDx=0;exitDy=0;entryX=0.5;entryY=0;entryDx=0;entryDy=0;" edge="1" parent="1" source="f2suV1up_wErrJ2xMtHf-1928" target="f2suV1up_wErrJ2xMtHf-1930">
          <mxGeometry relative="1" as="geometry" />
        </mxCell>
        <mxCell id="f2suV1up_wErrJ2xMtHf-1928" value="#56: concat" style="rounded=0;whiteSpace=wrap;html=1;" vertex="1" parent="1">
          <mxGeometry x="1900" y="2659" width="600" height="20" as="geometry" />
        </mxCell>
        <mxCell id="f2suV1up_wErrJ2xMtHf-1929" style="edgeStyle=orthogonalEdgeStyle;rounded=0;orthogonalLoop=1;jettySize=auto;html=1;exitX=0.5;exitY=1;exitDx=0;exitDy=0;entryX=0.5;entryY=0;entryDx=0;entryDy=0;" edge="1" parent="1" source="f2suV1up_wErrJ2xMtHf-1930" target="f2suV1up_wErrJ2xMtHf-1931">
          <mxGeometry relative="1" as="geometry" />
        </mxCell>
        <mxCell id="f2suV1up_wErrJ2xMtHf-1974" style="edgeStyle=orthogonalEdgeStyle;rounded=0;orthogonalLoop=1;jettySize=auto;html=1;exitX=0.75;exitY=1;exitDx=0;exitDy=0;entryX=0.5;entryY=0;entryDx=0;entryDy=0;" edge="1" parent="1" source="f2suV1up_wErrJ2xMtHf-1930" target="f2suV1up_wErrJ2xMtHf-1970">
          <mxGeometry relative="1" as="geometry">
            <Array as="points">
              <mxPoint x="2240" y="2760" />
              <mxPoint x="2500" y="2760" />
            </Array>
          </mxGeometry>
        </mxCell>
        <mxCell id="f2suV1up_wErrJ2xMtHf-1930" value="#57: conv1x1, ch=64" style="rounded=0;whiteSpace=wrap;html=1;" vertex="1" parent="1">
          <mxGeometry x="2120" y="2720" width="160" height="20" as="geometry" />
        </mxCell>
        <mxCell id="f2suV1up_wErrJ2xMtHf-1934" style="edgeStyle=orthogonalEdgeStyle;rounded=0;orthogonalLoop=1;jettySize=auto;html=1;exitX=0.5;exitY=1;exitDx=0;exitDy=0;entryX=0.895;entryY=0.064;entryDx=0;entryDy=0;entryPerimeter=0;" edge="1" parent="1" source="f2suV1up_wErrJ2xMtHf-1931" target="f2suV1up_wErrJ2xMtHf-1932">
          <mxGeometry relative="1" as="geometry" />
        </mxCell>
        <mxCell id="f2suV1up_wErrJ2xMtHf-1931" value="#58: conv3x3, ch=128, st=2" style="rounded=0;whiteSpace=wrap;html=1;" vertex="1" parent="1">
          <mxGeometry x="2120" y="2770" width="160" height="20" as="geometry" />
        </mxCell>
        <mxCell id="f2suV1up_wErrJ2xMtHf-1932" value="#59: concat" style="rounded=0;whiteSpace=wrap;html=1;" vertex="1" parent="1">
          <mxGeometry x="1520" y="2830" width="760" height="20" as="geometry" />
        </mxCell>
        <mxCell id="f2suV1up_wErrJ2xMtHf-1935" style="edgeStyle=orthogonalEdgeStyle;rounded=0;orthogonalLoop=1;jettySize=auto;html=1;exitX=0.75;exitY=1;exitDx=0;exitDy=0;entryX=0.5;entryY=0;entryDx=0;entryDy=0;" edge="1" parent="1" target="f2suV1up_wErrJ2xMtHf-1941">
          <mxGeometry relative="1" as="geometry">
            <mxPoint x="2077.499999999999" y="2850" as="sourcePoint" />
          </mxGeometry>
        </mxCell>
        <mxCell id="f2suV1up_wErrJ2xMtHf-1936" style="edgeStyle=orthogonalEdgeStyle;rounded=0;orthogonalLoop=1;jettySize=auto;html=1;exitX=0.5;exitY=1;exitDx=0;exitDy=0;entryX=0.5;entryY=0;entryDx=0;entryDy=0;" edge="1" parent="1" target="f2suV1up_wErrJ2xMtHf-1938">
          <mxGeometry relative="1" as="geometry">
            <mxPoint x="1899.9999999999995" y="2850" as="sourcePoint" />
          </mxGeometry>
        </mxCell>
        <mxCell id="f2suV1up_wErrJ2xMtHf-1937" style="edgeStyle=orthogonalEdgeStyle;rounded=0;orthogonalLoop=1;jettySize=auto;html=1;exitX=0.5;exitY=1;exitDx=0;exitDy=0;entryX=0.134;entryY=-0.05;entryDx=0;entryDy=0;entryPerimeter=0;" edge="1" parent="1" source="f2suV1up_wErrJ2xMtHf-1938" target="f2suV1up_wErrJ2xMtHf-1948">
          <mxGeometry relative="1" as="geometry" />
        </mxCell>
        <mxCell id="f2suV1up_wErrJ2xMtHf-1938" value="#60: conv1x1, ch=64" style="rounded=0;whiteSpace=wrap;html=1;" vertex="1" parent="1">
          <mxGeometry x="1820" y="2890" width="160" height="20" as="geometry" />
        </mxCell>
        <mxCell id="f2suV1up_wErrJ2xMtHf-1939" style="edgeStyle=orthogonalEdgeStyle;rounded=0;orthogonalLoop=1;jettySize=auto;html=1;exitX=0.75;exitY=1;exitDx=0;exitDy=0;entryX=0.5;entryY=0;entryDx=0;entryDy=0;" edge="1" parent="1" source="f2suV1up_wErrJ2xMtHf-1941" target="f2suV1up_wErrJ2xMtHf-1944">
          <mxGeometry relative="1" as="geometry" />
        </mxCell>
        <mxCell id="f2suV1up_wErrJ2xMtHf-1940" style="edgeStyle=orthogonalEdgeStyle;rounded=0;orthogonalLoop=1;jettySize=auto;html=1;exitX=0.5;exitY=1;exitDx=0;exitDy=0;entryX=0.467;entryY=0.03;entryDx=0;entryDy=0;entryPerimeter=0;" edge="1" parent="1" source="f2suV1up_wErrJ2xMtHf-1941" target="f2suV1up_wErrJ2xMtHf-1948">
          <mxGeometry relative="1" as="geometry" />
        </mxCell>
        <mxCell id="f2suV1up_wErrJ2xMtHf-1941" value="#61: conv1x1, ch=64" style="rounded=0;whiteSpace=wrap;html=1;" vertex="1" parent="1">
          <mxGeometry x="2020" y="2890" width="160" height="20" as="geometry" />
        </mxCell>
        <mxCell id="f2suV1up_wErrJ2xMtHf-1942" style="edgeStyle=orthogonalEdgeStyle;rounded=0;orthogonalLoop=1;jettySize=auto;html=1;exitX=0.75;exitY=1;exitDx=0;exitDy=0;entryX=0.5;entryY=0;entryDx=0;entryDy=0;" edge="1" parent="1" source="f2suV1up_wErrJ2xMtHf-1944" target="f2suV1up_wErrJ2xMtHf-1946">
          <mxGeometry relative="1" as="geometry" />
        </mxCell>
        <mxCell id="f2suV1up_wErrJ2xMtHf-1943" style="edgeStyle=orthogonalEdgeStyle;rounded=0;orthogonalLoop=1;jettySize=auto;html=1;exitX=0.5;exitY=1;exitDx=0;exitDy=0;entryX=0.65;entryY=-0.05;entryDx=0;entryDy=0;entryPerimeter=0;" edge="1" parent="1" source="f2suV1up_wErrJ2xMtHf-1944" target="f2suV1up_wErrJ2xMtHf-1948">
          <mxGeometry relative="1" as="geometry" />
        </mxCell>
        <mxCell id="f2suV1up_wErrJ2xMtHf-1944" value="#62: conv3x3, ch=64" style="rounded=0;whiteSpace=wrap;html=1;" vertex="1" parent="1">
          <mxGeometry x="2130" y="2950" width="160" height="20" as="geometry" />
        </mxCell>
        <mxCell id="f2suV1up_wErrJ2xMtHf-1945" style="edgeStyle=orthogonalEdgeStyle;rounded=0;orthogonalLoop=1;jettySize=auto;html=1;exitX=0.5;exitY=1;exitDx=0;exitDy=0;entryX=0.85;entryY=-0.05;entryDx=0;entryDy=0;entryPerimeter=0;" edge="1" parent="1" source="f2suV1up_wErrJ2xMtHf-1946" target="f2suV1up_wErrJ2xMtHf-1948">
          <mxGeometry relative="1" as="geometry" />
        </mxCell>
        <mxCell id="f2suV1up_wErrJ2xMtHf-1946" value="#63: conv3x3, ch=64" style="rounded=0;whiteSpace=wrap;html=1;" vertex="1" parent="1">
          <mxGeometry x="2250" y="3010" width="160" height="20" as="geometry" />
        </mxCell>
        <mxCell id="f2suV1up_wErrJ2xMtHf-1947" style="edgeStyle=orthogonalEdgeStyle;rounded=0;orthogonalLoop=1;jettySize=auto;html=1;exitX=0.5;exitY=1;exitDx=0;exitDy=0;entryX=0.5;entryY=0;entryDx=0;entryDy=0;" edge="1" parent="1" source="f2suV1up_wErrJ2xMtHf-1948" target="f2suV1up_wErrJ2xMtHf-1950">
          <mxGeometry relative="1" as="geometry" />
        </mxCell>
        <mxCell id="f2suV1up_wErrJ2xMtHf-1948" value="#64: concat" style="rounded=0;whiteSpace=wrap;html=1;" vertex="1" parent="1">
          <mxGeometry x="1820" y="3069" width="600" height="20" as="geometry" />
        </mxCell>
        <mxCell id="f2suV1up_wErrJ2xMtHf-1949" style="edgeStyle=orthogonalEdgeStyle;rounded=0;orthogonalLoop=1;jettySize=auto;html=1;exitX=0.5;exitY=1;exitDx=0;exitDy=0;entryX=0.5;entryY=0;entryDx=0;entryDy=0;" edge="1" parent="1" source="f2suV1up_wErrJ2xMtHf-1950" target="f2suV1up_wErrJ2xMtHf-1951">
          <mxGeometry relative="1" as="geometry" />
        </mxCell>
        <mxCell id="f2suV1up_wErrJ2xMtHf-1973" style="edgeStyle=orthogonalEdgeStyle;rounded=0;orthogonalLoop=1;jettySize=auto;html=1;exitX=0.75;exitY=1;exitDx=0;exitDy=0;entryX=0.5;entryY=0;entryDx=0;entryDy=0;" edge="1" parent="1" source="f2suV1up_wErrJ2xMtHf-1950" target="f2suV1up_wErrJ2xMtHf-1972">
          <mxGeometry relative="1" as="geometry">
            <Array as="points">
              <mxPoint x="2160" y="3170" />
              <mxPoint x="2280" y="3170" />
            </Array>
          </mxGeometry>
        </mxCell>
        <mxCell id="f2suV1up_wErrJ2xMtHf-1950" value="#65: conv1x1, ch=128" style="rounded=0;whiteSpace=wrap;html=1;" vertex="1" parent="1">
          <mxGeometry x="2040" y="3130" width="160" height="20" as="geometry" />
        </mxCell>
        <mxCell id="f2suV1up_wErrJ2xMtHf-1954" style="edgeStyle=orthogonalEdgeStyle;rounded=0;orthogonalLoop=1;jettySize=auto;html=1;exitX=0.5;exitY=1;exitDx=0;exitDy=0;entryX=0.931;entryY=-0.057;entryDx=0;entryDy=0;entryPerimeter=0;" edge="1" parent="1" source="f2suV1up_wErrJ2xMtHf-1951" target="f2suV1up_wErrJ2xMtHf-1952">
          <mxGeometry relative="1" as="geometry" />
        </mxCell>
        <mxCell id="f2suV1up_wErrJ2xMtHf-1951" value="#66: conv3x3, ch=256, st=2" style="rounded=0;whiteSpace=wrap;html=1;" vertex="1" parent="1">
          <mxGeometry x="2040" y="3180" width="160" height="20" as="geometry" />
        </mxCell>
        <mxCell id="f2suV1up_wErrJ2xMtHf-1952" value="#67: concat" style="rounded=0;whiteSpace=wrap;html=1;" vertex="1" parent="1">
          <mxGeometry x="1040" y="3240" width="1160" height="20" as="geometry" />
        </mxCell>
        <mxCell id="f2suV1up_wErrJ2xMtHf-1955" style="edgeStyle=orthogonalEdgeStyle;rounded=0;orthogonalLoop=1;jettySize=auto;html=1;exitX=0.75;exitY=1;exitDx=0;exitDy=0;entryX=0.5;entryY=0;entryDx=0;entryDy=0;" edge="1" parent="1" target="f2suV1up_wErrJ2xMtHf-1961">
          <mxGeometry relative="1" as="geometry">
            <mxPoint x="1777.499999999999" y="3260" as="sourcePoint" />
          </mxGeometry>
        </mxCell>
        <mxCell id="f2suV1up_wErrJ2xMtHf-1956" style="edgeStyle=orthogonalEdgeStyle;rounded=0;orthogonalLoop=1;jettySize=auto;html=1;exitX=0.5;exitY=1;exitDx=0;exitDy=0;entryX=0.5;entryY=0;entryDx=0;entryDy=0;" edge="1" parent="1" target="f2suV1up_wErrJ2xMtHf-1958">
          <mxGeometry relative="1" as="geometry">
            <mxPoint x="1600" y="3260" as="sourcePoint" />
          </mxGeometry>
        </mxCell>
        <mxCell id="f2suV1up_wErrJ2xMtHf-1957" style="edgeStyle=orthogonalEdgeStyle;rounded=0;orthogonalLoop=1;jettySize=auto;html=1;exitX=0.5;exitY=1;exitDx=0;exitDy=0;entryX=0.134;entryY=-0.05;entryDx=0;entryDy=0;entryPerimeter=0;" edge="1" parent="1" source="f2suV1up_wErrJ2xMtHf-1958" target="f2suV1up_wErrJ2xMtHf-1967">
          <mxGeometry relative="1" as="geometry" />
        </mxCell>
        <mxCell id="f2suV1up_wErrJ2xMtHf-1958" value="#68: conv1x1, ch=128" style="rounded=0;whiteSpace=wrap;html=1;" vertex="1" parent="1">
          <mxGeometry x="1520" y="3300" width="160" height="20" as="geometry" />
        </mxCell>
        <mxCell id="f2suV1up_wErrJ2xMtHf-1959" style="edgeStyle=orthogonalEdgeStyle;rounded=0;orthogonalLoop=1;jettySize=auto;html=1;exitX=0.75;exitY=1;exitDx=0;exitDy=0;entryX=0.5;entryY=0;entryDx=0;entryDy=0;" edge="1" parent="1" source="f2suV1up_wErrJ2xMtHf-1961" target="f2suV1up_wErrJ2xMtHf-1964">
          <mxGeometry relative="1" as="geometry" />
        </mxCell>
        <mxCell id="f2suV1up_wErrJ2xMtHf-1960" style="edgeStyle=orthogonalEdgeStyle;rounded=0;orthogonalLoop=1;jettySize=auto;html=1;exitX=0.5;exitY=1;exitDx=0;exitDy=0;entryX=0.467;entryY=0.03;entryDx=0;entryDy=0;entryPerimeter=0;" edge="1" parent="1" source="f2suV1up_wErrJ2xMtHf-1961" target="f2suV1up_wErrJ2xMtHf-1967">
          <mxGeometry relative="1" as="geometry" />
        </mxCell>
        <mxCell id="f2suV1up_wErrJ2xMtHf-1961" value="#69: conv1x1, ch=128" style="rounded=0;whiteSpace=wrap;html=1;" vertex="1" parent="1">
          <mxGeometry x="1720" y="3300" width="160" height="20" as="geometry" />
        </mxCell>
        <mxCell id="f2suV1up_wErrJ2xMtHf-1962" style="edgeStyle=orthogonalEdgeStyle;rounded=0;orthogonalLoop=1;jettySize=auto;html=1;exitX=0.75;exitY=1;exitDx=0;exitDy=0;entryX=0.5;entryY=0;entryDx=0;entryDy=0;" edge="1" parent="1" source="f2suV1up_wErrJ2xMtHf-1964" target="f2suV1up_wErrJ2xMtHf-1966">
          <mxGeometry relative="1" as="geometry" />
        </mxCell>
        <mxCell id="f2suV1up_wErrJ2xMtHf-1963" style="edgeStyle=orthogonalEdgeStyle;rounded=0;orthogonalLoop=1;jettySize=auto;html=1;exitX=0.5;exitY=1;exitDx=0;exitDy=0;entryX=0.65;entryY=-0.05;entryDx=0;entryDy=0;entryPerimeter=0;" edge="1" parent="1" source="f2suV1up_wErrJ2xMtHf-1964" target="f2suV1up_wErrJ2xMtHf-1967">
          <mxGeometry relative="1" as="geometry" />
        </mxCell>
        <mxCell id="f2suV1up_wErrJ2xMtHf-1964" value="#70: conv3x3, ch=128" style="rounded=0;whiteSpace=wrap;html=1;" vertex="1" parent="1">
          <mxGeometry x="1830" y="3360" width="160" height="20" as="geometry" />
        </mxCell>
        <mxCell id="f2suV1up_wErrJ2xMtHf-1965" style="edgeStyle=orthogonalEdgeStyle;rounded=0;orthogonalLoop=1;jettySize=auto;html=1;exitX=0.5;exitY=1;exitDx=0;exitDy=0;entryX=0.85;entryY=-0.05;entryDx=0;entryDy=0;entryPerimeter=0;" edge="1" parent="1" source="f2suV1up_wErrJ2xMtHf-1966" target="f2suV1up_wErrJ2xMtHf-1967">
          <mxGeometry relative="1" as="geometry" />
        </mxCell>
        <mxCell id="f2suV1up_wErrJ2xMtHf-1966" value="#71: conv3x3, ch=128" style="rounded=0;whiteSpace=wrap;html=1;" vertex="1" parent="1">
          <mxGeometry x="1950" y="3420" width="160" height="20" as="geometry" />
        </mxCell>
        <mxCell id="f2suV1up_wErrJ2xMtHf-1969" style="edgeStyle=orthogonalEdgeStyle;rounded=0;orthogonalLoop=1;jettySize=auto;html=1;exitX=0.5;exitY=1;exitDx=0;exitDy=0;entryX=0.5;entryY=0;entryDx=0;entryDy=0;" edge="1" parent="1" source="f2suV1up_wErrJ2xMtHf-1967" target="f2suV1up_wErrJ2xMtHf-1968">
          <mxGeometry relative="1" as="geometry" />
        </mxCell>
        <mxCell id="f2suV1up_wErrJ2xMtHf-1967" value="#72: concat" style="rounded=0;whiteSpace=wrap;html=1;" vertex="1" parent="1">
          <mxGeometry x="1520" y="3479" width="600" height="20" as="geometry" />
        </mxCell>
        <mxCell id="f2suV1up_wErrJ2xMtHf-1977" style="edgeStyle=orthogonalEdgeStyle;rounded=0;orthogonalLoop=1;jettySize=auto;html=1;exitX=0.5;exitY=1;exitDx=0;exitDy=0;entryX=0.5;entryY=0;entryDx=0;entryDy=0;" edge="1" parent="1" source="f2suV1up_wErrJ2xMtHf-1968" target="f2suV1up_wErrJ2xMtHf-1975">
          <mxGeometry relative="1" as="geometry" />
        </mxCell>
        <mxCell id="f2suV1up_wErrJ2xMtHf-1968" value="#73: conv1x1, ch=256" style="rounded=0;whiteSpace=wrap;html=1;" vertex="1" parent="1">
          <mxGeometry x="1740" y="3540" width="160" height="20" as="geometry" />
        </mxCell>
        <mxCell id="f2suV1up_wErrJ2xMtHf-1980" style="edgeStyle=orthogonalEdgeStyle;rounded=0;orthogonalLoop=1;jettySize=auto;html=1;exitX=0.5;exitY=1;exitDx=0;exitDy=0;entryX=0.904;entryY=-0.108;entryDx=0;entryDy=0;entryPerimeter=0;" edge="1" parent="1" source="f2suV1up_wErrJ2xMtHf-1970" target="f2suV1up_wErrJ2xMtHf-1976">
          <mxGeometry relative="1" as="geometry" />
        </mxCell>
        <mxCell id="f2suV1up_wErrJ2xMtHf-1970" value="#74: conv3x3, ch=128" style="rounded=0;whiteSpace=wrap;html=1;" vertex="1" parent="1">
          <mxGeometry x="2420" y="3580" width="160" height="20" as="geometry" />
        </mxCell>
        <mxCell id="f2suV1up_wErrJ2xMtHf-1979" style="edgeStyle=orthogonalEdgeStyle;rounded=0;orthogonalLoop=1;jettySize=auto;html=1;exitX=0.5;exitY=1;exitDx=0;exitDy=0;entryX=0.643;entryY=0.061;entryDx=0;entryDy=0;entryPerimeter=0;" edge="1" parent="1" source="f2suV1up_wErrJ2xMtHf-1972" target="f2suV1up_wErrJ2xMtHf-1976">
          <mxGeometry relative="1" as="geometry" />
        </mxCell>
        <mxCell id="f2suV1up_wErrJ2xMtHf-1972" value="#75: conv3x3, ch=256" style="rounded=0;whiteSpace=wrap;html=1;" vertex="1" parent="1">
          <mxGeometry x="2200" y="3580" width="160" height="20" as="geometry" />
        </mxCell>
        <mxCell id="f2suV1up_wErrJ2xMtHf-1978" style="edgeStyle=orthogonalEdgeStyle;rounded=0;orthogonalLoop=1;jettySize=auto;html=1;exitX=0.5;exitY=1;exitDx=0;exitDy=0;entryX=0.095;entryY=0.103;entryDx=0;entryDy=0;entryPerimeter=0;" edge="1" parent="1" source="f2suV1up_wErrJ2xMtHf-1975" target="f2suV1up_wErrJ2xMtHf-1976">
          <mxGeometry relative="1" as="geometry" />
        </mxCell>
        <mxCell id="f2suV1up_wErrJ2xMtHf-1975" value="#76: conv3x3, ch=512" style="rounded=0;whiteSpace=wrap;html=1;" vertex="1" parent="1">
          <mxGeometry x="1740" y="3580" width="160" height="20" as="geometry" />
        </mxCell>
        <mxCell id="f2suV1up_wErrJ2xMtHf-1976" value="#77: IDetect" style="rounded=0;whiteSpace=wrap;html=1;" vertex="1" parent="1">
          <mxGeometry x="1740" y="3660" width="840" height="20" as="geometry" />
        </mxCell>
        <mxCell id="f2suV1up_wErrJ2xMtHf-1983" value="C1 1/2" style="text;html=1;strokeColor=none;fillColor=none;align=center;verticalAlign=middle;whiteSpace=wrap;rounded=0;fontSize=24;fontColor=#FF0000;" vertex="1" parent="1">
          <mxGeometry x="220" y="35" width="150" height="30" as="geometry" />
        </mxCell>
        <mxCell id="f2suV1up_wErrJ2xMtHf-1987" value="C2 1/4" style="text;html=1;strokeColor=none;fillColor=none;align=center;verticalAlign=middle;whiteSpace=wrap;rounded=0;fontSize=24;fontColor=#FF0000;" vertex="1" parent="1">
          <mxGeometry x="630" y="215" width="150" height="30" as="geometry" />
        </mxCell>
        <mxCell id="f2suV1up_wErrJ2xMtHf-1992" value="C3 1/8" style="text;html=1;strokeColor=none;fillColor=none;align=center;verticalAlign=middle;whiteSpace=wrap;rounded=0;fontSize=24;fontColor=#FF0000;" vertex="1" parent="1">
          <mxGeometry x="840" y="550" width="150" height="30" as="geometry" />
        </mxCell>
        <mxCell id="f2suV1up_wErrJ2xMtHf-1993" value="" style="rounded=1;whiteSpace=wrap;html=1;fillColor=none;strokeColor=#FF0000;dashed=1;arcSize=5;" vertex="1" parent="1">
          <mxGeometry x="470" y="770" width="620" height="275" as="geometry" />
        </mxCell>
        <mxCell id="f2suV1up_wErrJ2xMtHf-1994" value="C4 1/16" style="text;html=1;strokeColor=none;fillColor=none;align=center;verticalAlign=middle;whiteSpace=wrap;rounded=0;fontSize=24;fontColor=#FF0000;" vertex="1" parent="1">
          <mxGeometry x="1069" y="880" width="150" height="30" as="geometry" />
        </mxCell>
        <mxCell id="f2suV1up_wErrJ2xMtHf-1995" value="" style="rounded=1;whiteSpace=wrap;html=1;fillColor=none;strokeColor=#FF0000;dashed=1;arcSize=5;" vertex="1" parent="1">
          <mxGeometry x="689" y="1090" width="620" height="280" as="geometry" />
        </mxCell>
        <mxCell id="f2suV1up_wErrJ2xMtHf-1996" value="C5 1/32" style="text;html=1;strokeColor=none;fillColor=none;align=center;verticalAlign=middle;whiteSpace=wrap;rounded=0;fontSize=24;fontColor=#FF0000;" vertex="1" parent="1">
          <mxGeometry x="1290" y="1170" width="150" height="30" as="geometry" />
        </mxCell>
        <mxCell id="f2suV1up_wErrJ2xMtHf-1997" value="" style="rounded=1;whiteSpace=wrap;html=1;fillColor=none;strokeColor=#3333FF;dashed=1;arcSize=5;" vertex="1" parent="1">
          <mxGeometry x="1220" y="1430" width="430" height="164" as="geometry" />
        </mxCell>
        <mxCell id="f2suV1up_wErrJ2xMtHf-1998" value="SPP" style="text;html=1;strokeColor=none;fillColor=none;align=center;verticalAlign=middle;whiteSpace=wrap;rounded=0;fontSize=24;fontColor=#3333FF;" vertex="1" parent="1">
          <mxGeometry x="1440" y="1395" width="150" height="30" as="geometry" />
        </mxCell>
        <mxCell id="f2suV1up_wErrJ2xMtHf-1999" value="" style="rounded=1;whiteSpace=wrap;html=1;fillColor=none;strokeColor=#00CC00;dashed=1;arcSize=5;" vertex="1" parent="1">
          <mxGeometry x="897" y="1385" width="773" height="445" as="geometry" />
        </mxCell>
        <mxCell id="f2suV1up_wErrJ2xMtHf-2000" value="P5 1/32" style="text;html=1;strokeColor=none;fillColor=none;align=center;verticalAlign=middle;whiteSpace=wrap;rounded=0;fontSize=24;fontColor=#00CC00;" vertex="1" parent="1">
          <mxGeometry x="760" y="1564" width="150" height="30" as="geometry" />
        </mxCell>
        <mxCell id="f2suV1up_wErrJ2xMtHf-2001" value="" style="rounded=1;whiteSpace=wrap;html=1;fillColor=none;strokeColor=#00CC00;dashed=1;arcSize=5;" vertex="1" parent="1">
          <mxGeometry x="1380" y="1995" width="640" height="295" as="geometry" />
        </mxCell>
        <mxCell id="f2suV1up_wErrJ2xMtHf-2002" value="P4 1/16" style="text;html=1;strokeColor=none;fillColor=none;align=center;verticalAlign=middle;whiteSpace=wrap;rounded=0;fontSize=24;fontColor=#00CC00;" vertex="1" parent="1">
          <mxGeometry x="1250" y="2127.5" width="150" height="30" as="geometry" />
        </mxCell>
        <mxCell id="f2suV1up_wErrJ2xMtHf-2003" value="" style="rounded=1;whiteSpace=wrap;html=1;fillColor=none;strokeColor=#00CC00;dashed=1;arcSize=5;" vertex="1" parent="1">
          <mxGeometry x="1878" y="2451" width="640" height="295" as="geometry" />
        </mxCell>
        <mxCell id="f2suV1up_wErrJ2xMtHf-2004" value="P3 1/8" style="text;html=1;strokeColor=none;fillColor=none;align=center;verticalAlign=middle;whiteSpace=wrap;rounded=0;fontSize=24;fontColor=#00CC00;" vertex="1" parent="1">
          <mxGeometry x="1750" y="2590" width="150" height="30" as="geometry" />
        </mxCell>
        <mxCell id="f2suV1up_wErrJ2xMtHf-2005" value="" style="rounded=1;whiteSpace=wrap;html=1;fillColor=none;strokeColor=#7F00FF;dashed=1;arcSize=5;" vertex="1" parent="1">
          <mxGeometry x="1520" y="2812.5" width="930" height="347.5" as="geometry" />
        </mxCell>
        <mxCell id="f2suV1up_wErrJ2xMtHf-2006" value="N4 1/16" style="text;html=1;strokeColor=none;fillColor=none;align=center;verticalAlign=middle;whiteSpace=wrap;rounded=0;fontSize=24;fontColor=#7F00FF;" vertex="1" parent="1">
          <mxGeometry x="1400" y="2971.25" width="150" height="30" as="geometry" />
        </mxCell>
        <mxCell id="f2suV1up_wErrJ2xMtHf-2007" value="" style="rounded=1;whiteSpace=wrap;html=1;fillColor=none;strokeColor=#7F00FF;dashed=1;arcSize=5;" vertex="1" parent="1">
          <mxGeometry x="1020" y="3220" width="1200" height="347.5" as="geometry" />
        </mxCell>
        <mxCell id="f2suV1up_wErrJ2xMtHf-2008" value="N5 1/32" style="text;html=1;strokeColor=none;fillColor=none;align=center;verticalAlign=middle;whiteSpace=wrap;rounded=0;fontSize=24;fontColor=#7F00FF;" vertex="1" parent="1">
          <mxGeometry x="897" y="3380" width="150" height="30" as="geometry" />
        </mxCell>
      </root>
    </mxGraphModel>
  </diagram>
</mxfile>
